<?xml version="1.0" encoding="UTF-8"?>
<!-- Do not edit this file with editors other than diagrams.net -->
<!DOCTYPE svg PUBLIC "-//W3C//DTD SVG 1.1//EN" "http://www.w3.org/Graphics/SVG/1.1/DTD/svg11.dtd">
<svg xmlns="http://www.w3.org/2000/svg" xmlns:xlink="http://www.w3.org/1999/xlink" version="1.1" width="111px" height="111px" viewBox="-0.5 -0.5 111 111" content="&lt;mxfile host=&quot;app.diagrams.net&quot; modified=&quot;2023-05-07T11:36:57.688Z&quot; agent=&quot;Mozilla/5.0 (Windows NT 10.0; Win64; x64) AppleWebKit/537.36 (KHTML, like Gecko) Chrome/112.0.0.0 Safari/537.36&quot; etag=&quot;qotx1mGjmt96wTaGivYD&quot; version=&quot;21.1.5&quot; type=&quot;device&quot;&gt;&#10;  &lt;diagram name=&quot;Page-1&quot; id=&quot;Om8qoDeevwsfi3RsY6pD&quot;&gt;&#10;    &lt;mxGraphModel dx=&quot;503&quot; dy=&quot;277&quot; grid=&quot;1&quot; gridSize=&quot;10&quot; guides=&quot;1&quot; tooltips=&quot;1&quot; connect=&quot;1&quot; arrows=&quot;1&quot; fold=&quot;1&quot; page=&quot;1&quot; pageScale=&quot;1&quot; pageWidth=&quot;850&quot; pageHeight=&quot;1100&quot; math=&quot;0&quot; shadow=&quot;0&quot;&gt;&#10;      &lt;root&gt;&#10;        &lt;mxCell id=&quot;0&quot; /&gt;&#10;        &lt;mxCell id=&quot;1&quot; parent=&quot;0&quot; /&gt;&#10;        &lt;mxCell id=&quot;EKuAaw0Q70c4uxEALBeM-1&quot; value=&quot;&quot; style=&quot;ellipse;whiteSpace=wrap;html=1;aspect=fixed;fillColor=#008a00;fontColor=#ffffff;strokeColor=#005700;sketch=1;curveFitting=1;jiggle=2;&quot; vertex=&quot;1&quot; parent=&quot;1&quot;&gt;&#10;          &lt;mxGeometry x=&quot;230&quot; y=&quot;130&quot; width=&quot;110&quot; height=&quot;110&quot; as=&quot;geometry&quot; /&gt;&#10;        &lt;/mxCell&gt;&#10;        &lt;mxCell id=&quot;EKuAaw0Q70c4uxEALBeM-3&quot; value=&quot;&quot; style=&quot;verticalLabelPosition=bottom;verticalAlign=top;html=1;shape=mxgraph.basic.polygon;polyCoords=[[0.25,0],[0.75,0],[1,0.25],[1,0.75],[0.75,1],[0.25,1],[0,0.75],[0,0.25]];polyline=0;strokeColor=none;gradientColor=none;fillColor=default;&quot; vertex=&quot;1&quot; parent=&quot;1&quot;&gt;&#10;          &lt;mxGeometry x=&quot;260&quot; y=&quot;160&quot; width=&quot;50&quot; height=&quot;50&quot; as=&quot;geometry&quot; /&gt;&#10;        &lt;/mxCell&gt;&#10;      &lt;/root&gt;&#10;    &lt;/mxGraphModel&gt;&#10;  &lt;/diagram&gt;&#10;&lt;/mxfile&gt;&#10;"><defs/><g><ellipse cx="55" cy="55" rx="55" ry="55" fill="none" stroke="none" pointer-events="all"/><path d="M 10.49 23.33 C 10.49 23.33 10.49 23.33 10.49 23.33 M 10.49 23.33 C 10.49 23.33 10.49 23.33 10.49 23.33 M 6.29 34.26 C 15 28.29 21.94 20.43 27.29 10.1 M 6.29 34.26 C 15.47 25.95 20.87 15.98 27.29 10.1 M 2.75 44.43 C 5.87 39.19 13.11 29.91 34.24 8.2 M 2.75 44.43 C 11.59 33.99 22.02 22.42 34.24 8.2 M 0.52 53.09 C 13.27 41.51 23.41 27.48 41.2 6.3 M 0.52 53.09 C 13.5 35.6 28.21 22.82 41.2 6.3 M 1.57 57.98 C 16.86 38.31 33.08 26.77 48.81 3.64 M 1.57 57.98 C 11.22 44.88 19.01 36.56 48.81 3.64 M 2.62 62.87 C 13.26 48.58 33.11 28.31 56.42 0.98 M 2.62 62.87 C 18.02 46.57 30.55 34.16 56.42 0.98 M 3.67 67.75 C 21.54 48.29 38.12 24.62 60.75 2.09 M 3.67 67.75 C 22.64 48.02 38.45 24.54 60.75 2.09 M 5.38 71.89 C 23.45 43.33 49.23 22.93 64.43 3.96 M 5.38 71.89 C 26.05 50.34 44.39 25.22 64.43 3.96 M 6.43 76.78 C 21.59 63.42 32.91 44.58 68.76 5.08 M 6.43 76.78 C 23.18 54.15 41.64 36.83 68.76 5.08 M 6.83 82.42 C 34.53 55.13 58.58 27.94 73.09 6.19 M 6.83 82.42 C 26.02 61.08 41.72 42.79 73.09 6.19 M 9.19 85.8 C 33.03 64.97 49.26 38.64 77.42 7.31 M 9.19 85.8 C 35.44 52.85 62.82 21.91 77.42 7.31 M 12.21 88.42 C 27.53 73.37 41.84 55.61 81.75 8.42 M 12.21 88.42 C 31.8 70.38 47.5 50.31 81.75 8.42 M 14.57 91.8 C 31.07 70.16 51.58 51.37 86.08 9.54 M 14.57 91.8 C 34.78 69.08 52.9 46.51 86.08 9.54 M 17.59 94.43 C 30.25 80.25 52.84 56.41 89.1 12.16 M 17.59 94.43 C 44.54 59.81 70.5 30 89.1 12.16 M 19.95 97.8 C 43.83 73.09 63.73 52.79 91.46 15.54 M 19.95 97.8 C 48.82 69.2 73.57 39.51 91.46 15.54 M 22.31 101.18 C 46.46 76.73 62.59 54.05 94.48 18.17 M 22.31 101.18 C 39.62 81.81 56 62.47 94.48 18.17 M 25.33 103.81 C 51.14 74.85 78.52 44.63 97.5 20.79 M 25.33 103.81 C 42.16 85.29 61.33 62.67 97.5 20.79 M 29.66 104.92 C 52.48 75.28 79.3 51.93 100.52 23.41 M 29.66 104.92 C 48.6 81.82 72.53 55.71 100.52 23.41 M 34.65 105.28 C 54.42 75.95 81.87 50.04 103.54 26.04 M 34.65 105.28 C 57.13 77.5 80.11 51.54 103.54 26.04 M 38.98 106.4 C 58.16 79.54 82.2 58.58 106.56 28.66 M 38.98 106.4 C 56.76 89.72 70.05 72.3 106.56 28.66 M 43.31 107.51 C 64.47 87.26 83.7 61.47 107.61 33.55 M 43.31 107.51 C 65.53 78.81 90.47 54.27 107.61 33.55 M 48.3 107.87 C 56.6 93.12 74.14 80.62 108.66 38.44 M 48.3 107.87 C 61.25 92.01 72.51 79.08 108.66 38.44 M 53.29 108.23 C 71 81.83 98.09 63.76 109.71 43.33 M 53.29 108.23 C 69.09 87.55 88.27 68.51 109.71 43.33 M 58.93 107.84 C 70.73 98.27 80.4 86.24 110.76 48.22 M 58.93 107.84 C 74.11 88.64 93.91 66.69 110.76 48.22 M 65.23 106.69 C 81.39 94.65 90.86 77.22 110.5 54.61 M 65.23 106.69 C 81.92 91.68 95.23 74.76 110.5 54.61 M 70.87 106.29 C 86.84 90.82 94.77 77.44 108.27 63.28 M 70.87 106.29 C 80.64 94.05 91.38 85.87 108.27 63.28 M 77.17 105.14 C 90.42 95.68 96.43 83.89 106.69 71.18 M 77.17 105.14 C 85.13 95.83 94.57 85.32 106.69 71.18 M 82.81 104.75 C 85.25 102.43 92.63 90.09 104.46 79.84 M 82.81 104.75 C 88.32 98.64 97.9 88.15 104.46 79.84" fill="none" stroke="#008a00" stroke-width="0.5" stroke-linejoin="round" stroke-linecap="round" stroke-miterlimit="10" pointer-events="all"/><path d="M 25.74 8.79 C 32.75 3.69 45.31 0.48 55 0.35 C 64.68 0.22 75.8 3.67 83.86 8.01 C 91.92 12.34 98.94 18.61 103.36 26.37 C 107.78 34.12 110.29 45.27 110.37 54.53 C 110.46 63.79 108.57 73.56 103.87 81.93 C 99.16 90.31 90.64 100.36 82.16 104.79 C 73.68 109.21 62.58 108.71 53 108.5 C 43.41 108.29 32.41 107.91 24.67 103.51 C 16.94 99.11 10.73 90.67 6.59 82.09 C 2.45 73.52 -0.8 61.84 -0.17 52.07 C 0.46 42.3 1.26 32.29 10.37 23.46 C 19.49 14.64 41.94 1.25 54.5 -0.89 C 67.06 -3.03 85.61 9.46 85.74 10.63 M 27 7.07 C 33.52 0.97 42.58 -1.38 51.77 -1.5 C 60.97 -1.62 73.41 2.11 82.16 6.36 C 90.91 10.61 100 15.85 104.28 24.01 C 108.55 32.18 107.51 45.81 107.81 55.36 C 108.11 64.9 109.68 73.53 106.09 81.27 C 102.5 89 94.41 97.12 86.26 101.77 C 78.12 106.42 67 108.52 57.2 109.17 C 47.4 109.82 35.39 110.37 27.49 105.69 C 19.59 101.01 14.68 90.02 9.81 81.11 C 4.93 72.2 -1.67 61.35 -1.77 52.22 C -1.87 43.1 4.54 33.09 9.19 26.36 C 13.84 19.63 23.31 14.86 26.11 11.85 C 28.91 8.83 26.06 8.05 25.99 8.27" fill="none" stroke="#005700" stroke-linejoin="round" stroke-linecap="round" stroke-miterlimit="10" pointer-events="all"/><path d="M 42.5 30 L 67.5 30 L 80 42.5 L 80 67.5 L 67.5 80 L 42.5 80 L 30 67.5 L 30 42.5 Z" fill="rgb(255, 255, 255)" stroke="none" pointer-events="all"/></g></svg>