<?xml version="1.0" standalone="no"?>
<!DOCTYPE svg PUBLIC "-//W3C//DTD SVG 20010904//EN"
 "http://www.w3.org/TR/2001/REC-SVG-20010904/DTD/svg10.dtd">
<svg version="1.0" xmlns="http://www.w3.org/2000/svg"
 width="768.000000pt" height="768.000000pt" viewBox="0 0 768.000000 768.000000"
 preserveAspectRatio="xMidYMid meet">
<metadata>
Created by potrace 1.14, written by Peter Selinger 2001-2017
</metadata>
<g transform="translate(0.000000,768.000000) scale(0.100000,-0.100000)"
fill="#000000" stroke="none">
<path d="M3698 7435 c-2 -1 -55 -5 -118 -9 -63 -3 -126 -8 -140 -10 -14 -3
-47 -7 -75 -10 -73 -9 -111 -15 -198 -32 -42 -9 -89 -18 -103 -20 -78 -14
-306 -79 -424 -120 -536 -186 -989 -471 -1391 -873 -304 -305 -524 -614 -709
-996 -126 -261 -237 -581 -285 -825 -30 -153 -45 -250 -61 -385 -23 -200 -23
-588 0 -760 2 -16 7 -57 11 -90 9 -89 14 -119 41 -250 14 -66 27 -131 30 -145
11 -55 68 -250 101 -344 74 -214 196 -476 307 -660 36 -60 66 -111 66 -113 0
-2 4 -9 10 -16 5 -7 47 -65 93 -129 187 -264 442 -537 677 -723 41 -33 77 -62
80 -66 7 -8 196 -139 260 -181 310 -200 682 -362 1040 -454 72 -19 217 -52
255 -58 93 -16 176 -28 220 -32 28 -3 56 -7 63 -9 64 -23 657 -23 792 -1 14 3
43 7 65 10 45 5 167 24 205 32 14 2 41 7 60 10 19 3 38 8 41 10 4 2 24 6 45
10 43 7 308 80 339 93 11 5 61 23 110 41 362 129 814 390 1080 622 11 9 43 36
70 60 71 61 289 280 361 363 33 39 93 113 132 165 40 52 76 100 80 105 20 25
143 218 190 297 58 99 180 348 207 423 10 28 22 55 25 60 12 16 97 273 124
370 25 93 63 258 71 310 8 47 15 88 19 110 2 11 7 49 11 85 4 36 9 76 11 90
24 190 23 544 -1 765 -12 112 -43 309 -60 385 -3 14 -8 36 -11 49 -14 66 -69
259 -105 361 -21 63 -41 120 -43 125 -3 10 -8 23 -40 100 -9 22 -24 58 -34 80
-33 82 -171 343 -231 438 -249 400 -565 745 -926 1012 -105 78 -290 205 -298
205 -2 0 -44 23 -93 52 -111 64 -321 165 -450 216 -187 75 -517 172 -639 188
-22 3 -56 9 -75 14 -31 8 -90 17 -160 25 -14 2 -45 5 -70 8 -119 15 -540 32
-552 22z m-193 -127 c-31 -10 -153 -43 -375 -103 -69 -18 -161 -43 -205 -55
-44 -12 -111 -30 -150 -40 -38 -10 -146 -39 -239 -64 -182 -50 -207 -54 -161
-29 114 62 537 204 685 229 14 3 59 12 100 20 114 24 157 30 255 40 39 3 72 8
74 10 2 2 14 4 25 3 16 -1 14 -3 -9 -11z m790 -4 c11 -2 40 -7 65 -10 77 -10
330 -63 426 -89 132 -36 311 -99 447 -157 112 -48 149 -74 70 -49 -34 10 -162
45 -418 112 -44 12 -109 29 -145 39 -36 10 -101 27 -145 39 -187 50 -422 114
-450 121 -29 9 103 3 150 -6z m1735 -724 c3 -3 27 -24 55 -45 27 -22 68 -56
90 -75 49 -42 307 -300 355 -355 67 -77 266 -335 258 -335 -2 0 -217 214 -478
476 -438 439 -468 471 -380 408 52 -38 97 -71 100 -74z m-4682 -340 c-232
-233 -417 -417 -413 -409 22 36 146 193 220 279 142 163 397 402 541 505 15
11 37 27 48 37 12 9 22 15 23 14 2 -2 -187 -193 -419 -426z m5775 -1090 c80
-194 161 -446 191 -594 38 -185 49 -258 70 -446 l5 -45 -14 40 c-7 22 -30 103
-51 180 -20 77 -54 205 -76 285 -22 80 -50 186 -63 235 -53 200 -126 471 -131
485 -3 10 -2 11 4 5 5 -5 35 -71 65 -145z m-6568 -61 c-15 -52 -46 -168 -70
-259 -56 -213 -131 -492 -161 -600 -20 -72 -23 -77 -18 -35 6 57 30 217 39
255 3 14 8 39 11 55 6 35 62 263 70 285 3 8 6 17 6 20 7 41 138 383 144 377 3
-2 -7 -46 -21 -98z m6819 -1756 c-15 -107 -24 -162 -39 -248 -17 -96 -70 -298
-110 -419 -49 -149 -131 -356 -147 -371 -8 -7 -9 -4 -4 10 4 11 9 27 11 35 5
19 93 347 185 690 39 146 72 270 74 275 34 140 48 152 30 28z m-6999 -233 c31
-118 88 -329 126 -469 38 -140 67 -256 66 -258 -2 -2 -16 30 -31 69 -15 40
-32 82 -37 93 -39 86 -122 386 -155 557 -17 90 -19 98 -29 172 -3 28 -9 55
-12 60 -4 8 -3 8 4 1 6 -5 36 -107 68 -225z m6348 -1422 c-154 -201 -273 -337
-402 -462 -90 -86 -89 -85 -161 -146 -36 -30 -67 -57 -70 -60 -6 -7 -139 -109
-160 -123 -8 -6 167 172 390 396 223 224 407 407 409 407 2 0 -1 -6 -6 -12z
m-5368 -407 c347 -344 383 -387 179 -213 -171 145 -387 372 -523 547 -27 35
-9 17 344 -334z m3895 -766 c0 -19 -365 -146 -545 -190 -16 -4 -37 -9 -45 -11
-76 -19 -121 -28 -246 -48 -80 -13 -141 -20 -137 -15 4 4 96 31 203 59 435
116 730 196 768 209 1 1 2 -1 2 -4z m-2560 -74 c240 -63 292 -77 475 -127 94
-25 181 -48 195 -51 31 -5 39 -13 14 -13 -22 0 -165 24 -269 45 -161 33 -353
89 -555 164 -90 34 -134 61 -60 37 25 -8 115 -33 200 -55z"/>
</g>
</svg>
